<svg xmlns="http://www.w3.org/2000/svg" viewBox="0 210 512 100"
	style="opacity: 1; transition: opacity 0.3s ease 0s; overflow: visible;">
	<g
		transform="matrix(0.43034669756889343, 0, 0, 0.43034669756889343, -26.011137008666992, 148.413330078125)">
		<path fill="#30325E"
			d="M296.017 325.878c-2.471-4.297-7.217-6.685-12.157-6.276c-2.061 0.171-4.145 0.259-6.245 0.259h-55.208
			c-42.22 0-76.444-34.846-75.427-77.27c0.988-41.18 35.654-73.606 76.846-73.606h53.789c2.1 0 4.184 0*.088 6.245 0.259
			c4.94 0.409 9.686-1.979 12.157-6.276h0c4.609-8.013-0.653-18.138-9.864-18.915c-2.816-0.237-5.664-0.359-8.539-0.359h-53.419
			c-55.802 0-102.913 45.652-102.526 101.452c0.172 24.783 9.307 47.438 24.307 64.895l-13.408 34.267
			c-2.924 7.472 4.89 14.623 12.074 11.05l37.424-18.611c12.352 5.402 25.994 8.406 40.34 8.406h55.208
			c2.875 0 5.723-0.121 8.539-0.359C295.364 344.016 300.626 333.892 296.017 325.878L296.017 325.878z"></path>
		<g>
			<path fill="#00C3AD"
				d="M319.126 203.064c-3.162-3.174-6.72-5.997-10.573-8.391c-2.501-1.559-5.456-2.02-8.328-1.3
				c-2.882 0.724-5.288 2.544-6.775 5.129c-0.934 1.643-1.43 3.489-1.43 5.338c0 3.79 1.943 7.272 5.203 9.313
				c10.882 6.795 17.38 18.488 17.38 31.28c0 12.786-6.5 24.478-17.386 31.274c-5.02 3.147-6.67 9.588-3.755 14.668
				c1.937 3.35 5.547 5.432 9.417 5.432c2.004 0 3.962-0.556 5.657-1.609c17.355-10.759 27.715-29.362 27.715-49.764
				C336.251 228.798 330.17 214.106 319.126 203.064z"></path>
			<path fill="#FF7859"
				d="M285.149 259.492c-8.323 0-15.069-6.747-15.069-15.069c0-8.323 6.747-15.069 15.069-15.069
				c8.322 0 15.069 6.747 15.069 15.069C300.218 252.746 293.471 259.492 285.149 259.492z"></path>
			<path fill="#FF4653"
				d="M378.333 244.437c0 36.197-19.075 67.917-47.718 85.676c-2.058 1.273-4.328 1.867-6.577 1.867
				c-4.392 0-8.678-2.292-11.033-6.365c-3.437-5.983-1.379-13.515 4.477-17.186c21.345-13.325 35.56-37.024 35.56-63.992
				c0-26.967-14.216-50.688-35.56-64.013c-3.925-2.461-6.153-6.662-6.153-10.969c0-2.101 0.552-4.244 1.676-6.217
				c3.564-6.195 11.563-8.253 17.632-4.477c6.62 4.116 12.73 8.954 18.204 14.449C367.067 191.436 378.333 216.621 378.333 244.437z
				"></path>
		</g>
	</g>
	<path text="Eventify" fill="#30325e" space="preserve" text-anchor="start" offset="0"
		font-scale="contain" font-size="48" font-family="Fredoka One"
		transform="matrix(1.5629112720489502, 0, 0, 1.5629112720489502, 150.09213256835938, 284.0406494140625)"
		font-style="normal" font-weight="400" data-fl-textpath=""
		d="M 10.42-13.34L 10.42-8.5L 25.2-8.5Q 26.3-8.5  26.86-8.42Q 27.41-8.35  28.13-7.97L 28.13-7.97Q 29.42-7.3  29.42-4.22L 29.42-4.22Q 29.42-0.86  27.65-0.29L 27.65-0.29Q 26.83 0  25.15 0L 25.15 0L 6.14 0Q 2.78 0  2.21-1.82L 2.21-1.82Q 1.92-2.59  1.92-4.27L 1.92-4.27L 1.92-30.96Q 1.92-33.41  2.83-34.3Q 3.74-35.18  6.29-35.18L 6.29-35.18L 25.2-35.18Q 26.3-35.18  26.86-35.11Q 27.41-35.04  28.13-34.66L 28.13-34.66Q 29.42-33.98  29.42-30.91L 29.42-30.91Q 29.42-27.55  27.65-26.98L 27.65-26.98Q 26.83-26.69  25.15-26.69L 25.15-26.69L 10.42-26.69L 10.42-21.84L 19.92-21.84Q 21.02-21.84  21.58-21.77Q 22.13-21.7  22.85-21.31L 22.85-21.31Q 24.14-20.64  24.14-17.57L 24.14-17.57Q 24.14-14.21  22.32-13.63L 22.32-13.63Q 21.5-13.34  19.82-13.34L 19.82-13.34L 10.42-13.34ZM 55.154-24.72L 55.154-24.72Q 57.644-23.23  57.644-21.55L 57.644-21.55Q 57.644-20.59  56.684-18.91L 56.684-18.91L 46.754-1.87Q 46.274-1.06  45.214-0.41Q 44.164 0.24  43.124 0.24Q 42.094 0.24  41.164-0.26Q 40.224-0.77  39.844-1.3L 39.844-1.3L 39.404-1.82L 29.424-18.91Q 28.464-20.5  28.464-21.5L 28.464-21.5Q 28.464-23.23  30.964-24.72L 30.964-24.72Q 32.784-25.78  33.844-25.78Q 34.894-25.78  35.494-25.13Q 36.094-24.48  36.764-23.18L 36.764-23.18L 43.054-11.09L 49.344-23.18Q 49.874-24.1  50.134-24.5Q 50.404-24.91  50.974-25.32Q 51.554-25.73  52.514-25.73Q 53.474-25.73  55.154-24.72ZM 83.228-15.67Q 83.228-12.72  81.768-11.3Q 80.308-9.89  78.528-9.89L 78.528-9.89L 67.148-9.89Q 67.148-8.54  68.738-7.63Q 70.318-6.72  71.908-6.72L 71.908-6.72Q 74.688-6.72  76.268-7.3L 76.268-7.3L 76.798-7.49Q 77.948-8.02  78.718-8.02L 78.718-8.02Q 80.258-8.02  81.358-5.86L 81.358-5.86Q 81.988-4.56  81.988-3.65L 81.988-3.65Q 81.988 0.62  71.758 0.62L 71.758 0.62Q 68.208 0.62  65.448-0.6Q 62.688-1.82  61.148-3.84L 61.148-3.84Q 58.128-7.73  58.128-12.53L 58.128-12.53Q 58.128-18.58  62.038-22.2Q 65.948-25.82  71.808-25.82L 71.808-25.82Q 78.478-25.82  81.598-21.12L 81.598-21.12Q 83.228-18.62  83.228-15.67ZM 67.058-14.26L 73.108-14.26Q 74.928-14.26  74.928-15.79L 74.928-15.79Q 74.928-16.9  74.088-17.57Q 73.248-18.24  71.688-18.24Q 70.128-18.24  68.588-16.97Q 67.058-15.7  67.058-14.26L 67.058-14.26ZM 100.412-25.3L 100.412-25.3Q 105.212-25.3  108.412-21.62Q 111.602-17.95  111.602-12.67L 111.602-12.67L 111.602-4.22Q 111.602-3.12  111.532-2.57Q 111.452-2.02  111.122-1.34L 111.122-1.34Q 110.452-0.05  107.372-0.05L 107.372-0.05Q 103.972-0.05  103.442-1.82L 103.442-1.82Q 103.152-2.64  103.152-4.27L 103.152-4.27L 103.152-12.72Q 103.152-14.69  102.022-15.79Q 100.892-16.9  99.002-16.9Q 97.102-16.9  95.932-15.74Q 94.752-14.59  94.752-12.72L 94.752-12.72L 94.752-4.22Q 94.752-3.12  94.682-2.57Q 94.612-2.02  94.222-1.34L 94.222-1.34Q 93.602-0.05  90.532-0.05L 90.532-0.05Q 87.502-0.05  86.832-1.34L 86.832-1.34Q 86.492-2.06  86.422-2.62Q 86.352-3.17  86.352-4.27L 86.352-4.27L 86.352-21.26Q 86.352-22.32  86.422-22.87Q 86.492-23.42  86.882-24.1L 86.882-24.1Q 87.552-25.3  90.572-25.3L 90.572-25.3Q 93.502-25.3  94.172-24.19L 94.172-24.19Q 94.652-23.38  94.652-22.22L 94.652-22.22Q 94.852-22.56  95.522-23.18Q 96.192-23.81  96.812-24.19L 96.812-24.19Q 98.452-25.3  100.412-25.3ZM 129.65-16.8L 129.65-16.8L 126.53-16.99L 126.53-10.37Q 126.53-9.07  126.94-8.5Q 127.34-7.92  128.47-7.92Q 129.6-7.92  130.2-7.85Q 130.8-7.78  131.47-7.39L 131.47-7.39Q 132.58-6.77  132.58-4.18L 132.58-4.18Q 132.58-1.15  131.23-0.48L 131.23-0.48Q 130.51-0.14  129.96-0.07Q 129.41 0  128.35 0L 128.35 0Q 123.36 0  120.77-2.26Q 118.18-4.51  118.18-9.89L 118.18-9.89L 118.18-16.99Q 117.26-16.85  116.21-16.85Q 115.15-16.85  114.46-17.66Q 113.76-18.48  113.76-20.45Q 113.76-22.42  114-23.3Q 114.24-24.19  114.67-24.58L 114.67-24.58Q 115.44-25.2  116.59-25.2L 116.59-25.2L 118.18-25.01L 118.18-29.95Q 118.18-31.06  118.25-31.58Q 118.32-32.11  118.7-32.74L 118.7-32.74Q 119.33-33.94  122.4-33.94L 122.4-33.94Q 125.66-33.94  126.29-32.16L 126.29-32.16Q 126.53-31.39  126.53-29.71L 126.53-29.71L 126.53-25.01Q 128.64-25.2  129.72-25.2Q 130.8-25.2  131.35-25.13Q 131.9-25.06  132.62-24.67L 132.62-24.67Q 133.87-24.05  133.87-20.98L 133.87-20.98Q 133.87-17.95  132.58-17.28L 132.58-17.28Q 131.86-16.94  131.3-16.87Q 130.75-16.8  129.65-16.8ZM 136.512-4.22L 136.512-21.07Q 136.512-22.18  136.582-22.73Q 136.652-23.28  136.992-24L 136.992-24Q 137.662-25.25  140.732-25.25L 140.732-25.25Q 143.042-25.25  144.002-24.43L 144.002-24.43Q 144.812-23.76  144.862-22.37L 144.862-22.37Q 144.912-21.89  144.912-20.98L 144.912-20.98L 144.912-4.18Q 144.912-3.07  144.842-2.52Q 144.772-1.97  144.382-1.25L 144.382-1.25Q 143.762 0  140.692 0L 140.692 0Q 137.662 0  136.992-1.3L 136.992-1.3Q 136.652-2.02  136.582-2.54Q 136.512-3.07  136.512-4.22L 136.512-4.22ZM 144.412-29.98Q 144.052-29.28  143.132-28.99Q 142.222-28.7  140.712-28.7Q 139.202-28.7  138.292-28.99Q 137.372-29.28  137.012-30Q 136.652-30.72  136.582-31.27Q 136.512-31.82  136.512-32.93Q 136.512-34.03  136.582-34.58Q 136.652-35.14  136.992-35.81L 136.992-35.81Q 137.662-37.1  140.732-37.1L 140.732-37.1Q 143.762-37.1  144.382-35.81L 144.382-35.81Q 144.772-35.09  144.842-34.54Q 144.912-33.98  144.912-32.88Q 144.912-31.78  144.842-31.22Q 144.772-30.67  144.412-29.98ZM 160.412-24.96L 163.532-25.25Q 166.852-25.25  167.422-23.42L 167.422-23.42Q 167.712-22.51  167.712-21.02Q 167.712-19.54  167.402-18.65Q 167.092-17.76  166.412-17.38L 166.412-17.38Q 165.412-16.8  163.492-16.8L 163.492-16.8L 160.412-16.99L 160.412-4.13Q 160.412-2.3  159.962-1.42Q 159.502-0.53  158.572-0.24Q 157.632 0.05  156.142 0.05Q 154.652 0.05  153.772-0.26Q 152.882-0.58  152.492-1.27Q 152.112-1.97  152.042-2.54Q 151.972-3.12  151.972-4.22L 151.972-4.22L 151.972-16.94L 150.242-16.94Q 148.992-17.04  148.462-17.52L 148.462-17.52Q 147.552-18.43  147.552-21.02L 147.552-21.02Q 147.552-24.96  150.382-24.96L 150.382-24.96L 151.972-24.96L 151.972-27.5Q 151.972-31.2  154.612-34.2Q 157.252-37.2  162.242-37.2L 162.242-37.2Q 163.342-37.2  163.892-37.13Q 164.452-37.06  165.172-36.67L 165.172-36.67Q 166.462-36.05  166.462-32.98L 166.462-32.98Q 166.462-30.67  165.652-29.66L 165.652-29.66Q 164.972-28.9  163.532-28.8L 163.532-28.8Q 163.102-28.8  162.192-28.8L 162.192-28.8Q 160.412-28.8  160.412-27.6L 160.412-27.6L 160.412-24.96ZM 193.872-25.01L 193.872-25.01Q 196.702-23.76  196.702-21.98L 196.702-21.98Q 196.702-21.12  196.322-20.35Q 195.932-19.58  195.932-19.54L 195.932-19.54L 183.362 8.59Q 182.972 9.5  182.712 9.98Q 182.452 10.46  181.872 10.9Q 181.292 11.33  180.432 11.33Q 179.572 11.33  177.892 10.61L 177.892 10.61Q 175.052 9.36  175.052 7.63L 175.052 7.63Q 175.052 6.48  179.662-3.36L 179.662-3.36L 170.112-19.44Q 169.152-21.02  169.152-21.79L 169.152-21.79Q 169.152-23.33  171.742-24.86L 171.742-24.86Q 173.372-25.82  174.292-25.82Q 175.202-25.82  175.772-25.44Q 176.352-25.06  176.612-24.65Q 176.882-24.24  179.252-20.18Q 181.632-16.13  183.792-12.62L 183.792-12.62Q 184.032-13.39  186.382-18.55Q 188.732-23.71  188.902-24.05Q 189.072-24.38  189.452-24.86L 189.452-24.86Q 190.082-25.68  191.212-25.68Q 192.332-25.68  193.872-25.01Z"></path>
</svg>